<svg xmlns="http://www.w3.org/2000/svg" version="1.1" xmlns:xlink="http://www.w3.org/1999/xlink" xmlns:svgjs="http://svgjs.com/svgjs" width="50" height="55"><svg width="50" height="55" viewBox="0 0 50 55" fill="none" xmlns="http://www.w3.org/2000/svg">
<path d="M0 2.4362C0 1.09073 1.09072 3.8147e-06 2.4362 3.8147e-06H47.5059C48.8513 3.8147e-06 49.9421 1.09073 49.9421 2.4362C49.9421 3.78168 48.8513 4.8724 47.5059 4.8724H2.4362C1.09072 4.8724 0 3.78168 0 2.4362Z" fill="#FF8811"></path>
<path d="M2.7781 18.8298C2.33241 18.3259 2.37961 17.5561 2.88353 17.1104L20.2679 1.73481C20.7718 1.28912 21.5417 1.33633 21.9874 1.84025L23.4884 3.53739C23.9341 4.04131 23.8869 4.81113 23.383 5.25682L5.99856 20.6324C5.49464 21.0781 4.72483 21.0309 4.27914 20.527L2.7781 18.8298Z" fill="#FF8811"></path>
<path d="M6.89834 17.2222L24.1356 32.4671L21.3405 35.6276L4.10321 20.3827L6.89834 17.2222Z" fill="#FF8811"></path>
<path d="M45.8793 18.0158C46.325 18.5197 46.2778 19.2895 45.7738 19.7352L28.3894 35.1108C27.8855 35.5565 27.1157 35.5093 26.67 35.0054L25.169 33.3083C24.7233 32.8043 24.7705 32.0345 25.2744 31.5888L42.6588 16.2132C43.1627 15.7675 43.9325 15.8147 44.3782 16.3187L45.8793 18.0158Z" fill="#FF8811"></path>
<path d="M41.759 19.6234L24.5218 4.37854L27.3169 1.2181L44.5542 16.463L41.759 19.6234Z" fill="#FF8811"></path>
<path d="M24.362 54.8144C23.0165 54.8144 21.9258 53.7237 21.9258 52.3782L21.9258 2.4362C21.9258 1.09072 23.0165 5.88126e-08 24.362 0C25.7074 -5.88126e-08 26.7982 1.09072 26.7982 2.4362L26.7982 52.3782C26.7982 53.7237 25.7075 54.8144 24.362 54.8144Z" fill="#FF8811"></path>
<path d="M2.79388 52.9406C1.9236 51.9144 2.04994 50.3771 3.07606 49.5068L22.7031 32.8607C23.7292 31.9904 25.2665 32.1167 26.1368 33.1429C27.0071 34.169 26.8808 35.7063 25.8546 36.5766L6.2276 53.2227C5.20148 54.093 3.66415 53.9667 2.79388 52.9406Z" fill="#FF8811"></path>
<path d="M22.2834 33.1433C23.1536 32.1171 24.691 31.9907 25.7171 32.861L45.3447 49.5064C46.3709 50.3767 46.4973 51.914 45.627 52.9401C44.7568 53.9663 43.2195 54.0927 42.1933 53.2224L22.5657 36.577C21.5395 35.7068 21.4131 34.1694 22.2834 33.1433Z" fill="#FF8811"></path>
</svg><style>@media (prefers-color-scheme: light) { :root { filter: none; } }
</style></svg>